HIERARCHY
ROOT Hips
{
	OFFSET -0.001795 -0.223333 0.028219
	CHANNELS 6 Xposition Yposition Zposition Zrotation Yrotation Xrotation 
	JOINT LeftUpLeg
	{
		OFFSET 0.069520 -0.091406 -0.006815
		CHANNELS 3 Zrotation Yrotation Xrotation
		JOINT LeftLeg
		{
			OFFSET 0.034277 -0.375199 -0.004496
			CHANNELS 3 Zrotation Yrotation Xrotation
			JOINT LeftFoot
			{
				OFFSET -0.013596 -0.397961 -0.043693
				CHANNELS 3 Zrotation Yrotation Xrotation
				JOINT LeftToe
				{
					OFFSET 0.026358 -0.055791 0.119288
					CHANNELS 3 Zrotation Yrotation Xrotation
					End Site
					{
						OFFSET 0.000000 0.000000 0.000000
					}
				}
			}
		}
	}
	JOINT RightUpLeg
	{
		OFFSET -0.067670 -0.090522 -0.004320
		CHANNELS 3 Zrotation Yrotation Xrotation
		JOINT RightLeg
		{
			OFFSET -0.038290 -0.382569 -0.008850
			CHANNELS 3 Zrotation Yrotation Xrotation
			JOINT RightFoot
			{
				OFFSET 0.015774 -0.398415 -0.042312
				CHANNELS 3 Zrotation Yrotation Xrotation
				JOINT RightToe
				{
					OFFSET -0.025372 -0.048144 0.123348
					CHANNELS 3 Zrotation Yrotation Xrotation
					End Site
					{
						OFFSET 0.000000 0.000000 0.000000
					}
				}
			}
		}
	}
	JOINT Spine
	{
		OFFSET -0.002533 0.108963 -0.026696
		CHANNELS 3 Zrotation Yrotation Xrotation
		JOINT Spine1
		{
			OFFSET 0.005487 0.135180 0.001092
			CHANNELS 3 Zrotation Yrotation Xrotation
			JOINT Spine2
			{
				OFFSET 0.001457 0.052922 0.025425
				CHANNELS 3 Zrotation Yrotation Xrotation
				JOINT Neck
				{
					OFFSET -0.002778 0.213870 -0.042857
					CHANNELS 3 Zrotation Yrotation Xrotation
					JOINT Head
					{
						OFFSET 0.005152 0.064970 0.051349
						CHANNELS 3 Zrotation Yrotation Xrotation
						End Site
						{
							OFFSET 0.000000 0.000000 0.000000
						}
					}
				}
				JOINT LeftShoulder
				{
					OFFSET 0.078845 0.121749 -0.034090
					CHANNELS 3 Zrotation Yrotation Xrotation
					JOINT LeftArm
					{
						OFFSET 0.090977 0.030469 -0.008868
						CHANNELS 3 Zrotation Yrotation Xrotation
						JOINT LeftForeArm
						{
							OFFSET 0.259612 -0.012772 -0.027456
							CHANNELS 3 Zrotation Yrotation Xrotation
							JOINT LeftHand
							{
								OFFSET 0.249234 0.008986 -0.001171
								CHANNELS 3 Zrotation Yrotation Xrotation
								End Site
								{
									OFFSET 0.000000 0.000000 0.000000
								}
							}
						}
					}
				}
				JOINT RightShoulder
				{
					OFFSET -0.081759 0.118833 -0.038615
					CHANNELS 3 Zrotation Yrotation Xrotation
					JOINT RightArm
					{
						OFFSET -0.096012 0.032551 -0.009143
						CHANNELS 3 Zrotation Yrotation Xrotation
						JOINT RightForeArm
						{
							OFFSET -0.253742 -0.013329 -0.021401
							CHANNELS 3 Zrotation Yrotation Xrotation
							JOINT RightHand
							{
								OFFSET -0.255298 0.007772 -0.005559
								CHANNELS 3 Zrotation Yrotation Xrotation
								End Site
								{
									OFFSET 0.000000 0.000000 0.000000
								}
							}
						}
					}
				}
			}
		}
	}
}
MOTION
Frames: 6
Frame Time: 0.050000
0.000000 0.929883 0.000000 -2.320889 -7.215807 2.210491 -2.397097 0.237543 1.873851 -6.128018 0.661183 -6.413861 -0.456624 0.518377 4.016241 0.000000 0.000000 0.000000 -6.570850 0.647412 -8.039299 3.755692 -0.161627 10.507151 -3.473804 -9.017411 1.044702 0.000000 0.000000 0.000000 -0.052321 -0.044749 1.110720 -1.447468 0.779924 4.985710 2.636188 2.889065 4.808224 3.749346 -1.146995 -16.990457 0.000000 0.000000 0.000000 -30.616117 -8.059830 2.848041 -36.572206 3.658572 -5.379364 -43.873901 -69.135409 34.518706 0.000000 0.000000 0.000000 30.906664 12.033405 4.591707 40.714976 4.650819 -2.248002 -22.510218 43.019549 -7.148482 0.000000 0.000000 0.000000 
-0.002363 0.929955 0.000061 -2.004808 -8.574925 2.955551 -1.582508 0.252018 2.170334 -8.132473 0.786639 -8.426118 -0.301320 1.203248 5.363864 0.000000 0.000000 0.000000 -6.808770 0.742497 -9.390870 3.706668 -0.123158 10.493923 -3.166734 -8.487382 1.494883 0.000000 0.000000 0.000000 -1.195930 0.036673 -0.295116 -1.359808 0.758364 4.863466 3.057462 2.102626 6.106142 2.842359 -0.692265 -18.113648 0.000000 0.000000 0.000000 -29.975035 -6.673953 2.645897 -37.326973 3.249113 -5.647588 -61.266738 -71.424110 50.546093 0.000000 0.000000 0.000000 30.159844 12.161145 4.014383 42.469340 5.184376 -2.045694 -25.760814 44.371874 -8.919286 0.000000 0.000000 0.000000 
-0.006189 0.931597 0.000329 -1.685982 -8.846940 3.475574 -0.955271 0.219551 2.016952 -9.413291 0.849556 -9.161603 -0.493263 1.216721 6.610831 0.000000 0.000000 0.000000 -7.427316 0.827675 -11.201726 2.104417 0.129771 9.667797 -0.489142 -4.858462 6.693437 0.000000 0.000000 0.000000 -1.117678 0.072455 -1.279034 -1.006177 0.566950 4.424888 2.296756 1.614691 6.608623 2.826016 -0.929086 -15.965777 0.000000 0.000000 0.000000 -29.419525 -6.919461 3.037604 -36.486886 2.866166 -5.497184 -60.660294 -71.955391 50.598657 0.000000 0.000000 0.000000 31.671895 12.211508 3.839935 41.761142 4.203652 -2.281139 -24.223086 44.792570 -8.430810 0.000000 0.000000 0.000000 
-0.011881 0.932032 0.001107 -1.522880 -9.305591 3.279174 -0.096780 0.268024 2.685120 -10.651331 0.915178 -9.783960 -0.517668 1.331839 7.207028 0.000000 0.000000 0.000000 -7.385919 0.860476 -11.708115 0.429626 0.368210 8.700114 2.368015 -1.140819 10.883876 0.000000 0.000000 0.000000 -1.805439 0.104792 -2.034110 -0.775190 0.484624 5.762703 2.394085 0.543748 6.186150 2.253588 -0.701766 -15.947311 0.000000 0.000000 0.000000 -29.698385 -6.681446 3.372701 -35.358542 3.135475 -5.489552 -70.768938 -72.899807 60.453270 0.000000 0.000000 0.000000 32.026530 12.492404 3.395238 42.561779 2.861308 -2.536347 -26.084149 47.540877 -10.101991 0.000000 0.000000 0.000000 
-0.019213 0.933013 0.002686 -1.310738 -9.370527 2.872115 0.389226 0.314710 3.274778 -11.060599 0.944979 -9.755183 -0.588876 1.281560 7.473528 0.000000 0.000000 0.000000 -7.498705 0.819458 -11.080754 1.071608 0.259465 8.598929 2.357229 -1.008377 10.577915 0.000000 0.000000 0.000000 -1.698661 0.091840 -1.739861 -0.790800 0.497316 5.871961 2.300860 -0.481667 5.924631 2.081649 -0.762898 -15.040338 0.000000 0.000000 0.000000 -29.989624 -6.713102 3.826597 -33.957971 2.600441 -5.239334 -75.749115 -73.118766 65.364446 0.000000 0.000000 0.000000 32.083024 11.348172 2.061003 42.770270 1.328010 -2.888239 -21.621270 50.943938 -9.064704 0.000000 0.000000 0.000000 
-0.027866 0.933682 0.005295 -1.243791 -9.682097 2.473838 0.586908 0.371199 3.876392 -10.600362 0.936490 -9.580772 -0.400970 1.537573 7.241141 0.000000 0.000000 0.000000 -7.130352 0.760232 -9.672692 1.249000 0.169133 7.206085 2.469287 -0.590085 10.133393 0.000000 0.000000 0.000000 -1.746107 0.090781 -1.765885 -0.511048 0.370777 6.600830 2.238588 -1.230390 5.210205 1.249769 -0.351307 -14.476678 0.000000 0.000000 0.000000 -30.499437 -6.388545 3.936614 -32.443680 2.390132 -5.006459 -81.878543 -72.528231 70.579553 0.000000 0.000000 0.000000 31.685557 10.894271 1.339393 43.678040 -1.014355 -3.604800 -17.389181 54.750868 -7.937623 0.000000 0.000000 0.000000 
